<svg xmlns="http://www.w3.org/2000/svg" viewBox="0 0 532 572" width="532" height="572">
<!-- Germany, Natural Earth 1:10m (public domain), naturalearthdata.com. Generated by apps/web/scripts/build-germany-map.mjs -->
<rect width="532" height="572" fill="#e8eef1"/>
<path fill="#f1f2ee" stroke="#d9dcd6" stroke-width=".8" stroke-linejoin="round" d="M-4 576l.9-237l4 1.5l4.3-1.2l4.9 5.6l3.2 .3l-3.1 6.9l3.4 5.1l-3.4 3.9l2.5 3.3l9.9 1.5l8.6-3.4l1.5-6.4l4.4-4.5l2.9 .3l-3.2 12.3l3.2 2.9l-.6 7.7l5-.1l8 7.1l3.6-.4l1.6 5.2l4.3 .6l2.2 6.7l11.8-3.3l7.3 4.4l1.3 2.6l9.5-3.7l5.4 2.7l3-.5l3.8 1.9l3.3 4.8l-.8 2.3l5.9 7.2l.4 3.6l4.4 .7l.6-3.9l3.2 .1l3.9 1.6l1.3 4.8l1.8-2.2l7.6 2.4l5.5-4.1l9.1 8.4l12.1 .2l10.8 4.9l-4.4 9.8l-5 3.3l-6.4 9.2l-2.5 17.7l-6.8 14.6l1.6 9.3l-4.4 17l3.1 8l-4.3 2.7l-.5 4l-2.2-.6l-1.1 3.7l-6.1 1l-2.8-1.6l.5-3l-8.3 0l.5 2.3l-4.9 6.4l5.5-.9l1.3 2.5l-13.7 15.8l-1.3 4.2l-9 4.9l-.6 11.9l-6.2 5zM443.3 306l7 0l.6-6.5l-1.5-2.1l1.8-1.9l4.2 2.6l1.4-1.9l5.2 3.7l-.6 3.5l4.1 7.9l3.5-1.5l9.3 4.3l4.8-.6l2.4 4.4l4.9-.2l.5 4.8l4.2-2.8l3.6 1.5l2.2-2.4l4.1 1l3.8 5l-2.9 4.9l-5.7 2.6l-.6 2.9l2.6 2.8l3.3-.4l12.8 18l6.4-6.2l5.9-2.9l2.1 .9l-6.1-13.2l9.4 1.8l0 102.9l-6.2 12.8l-2.9-7.4l-8-1l-1.2-2.8l-4.7-1.6l-3.8 .5l-2.4 4.3l-11.7-.9l-11-8.4l-5.5 1l-16.5-8.3l-1.2 2.2l-4.1 .9l-.2-3.6l-5.4-1.1l-1.6 2.6l-.5 12.3l-6.1 .2l-4 6.7l-1.1 6.3l-8.8-4.4l-5.8 5.6l-9.8-2.2l-2.6-2.3l1-2.3l-1.8-2.5l-7.1-4.2l-8.3-11.6l-7.5-.9l-5.1-8.7l-4.9-1.5l-7.2-11.5l-4.7-2.9l-4.4 .5l-5.9-7.2l-.3-4.3l-5-7.1l-.1-3.3l-4.7-4.6l2.9-2.4l2.6-8.6l-2.3-1.3l-.4-3.1l-8.4-4.2l-2.4-8.2l-4.3-4.6l1.3-2.2l-1.4-2.5l3.8 .8l5.2 9.2l1.5-6.4l7.1-8.4l7.3-.3l5.2-3.2l5.4 2.6l2.3-5.7l6.1-.4l2.9-5.4l2.2 .9l3.4-4l3.2 2.1l4.4-7.1l11.2-1.1l2.4-3.7l13.8-6.3l4.7-.1l1.3-2.7l-5.7-3.9l1.9-3.5l4.5 1.5l3.4-1.6l3.8 4l-1 4.1l3.2-.6l-.6 5l5.8 2.2l2.1-3.1zM421.7-4l3.5 8.3l-7.3 8.6l-4.8 0l-5.4-2.7l-11.6 .8l-13.5 5.1l-13.5-3.9l-6 1.3l1.2-3.4l2.8 1.1l2.3-2l-2.8-6.4l5.5-6.8zM90.9 353.7l-.9 4.7l2.7 6.9l5.7 6.8l8.1 2.6l-.1 5.4l-4 3.6l-2.3 13l-6.1-2.8l-9.5 3.7l-6.9-6.2l3.8-6.8l-1.3-4.6l-4.7-4.8l.9-4.5l-1.7-1.5l9.9-18.3l5.1 .3l1.3 2.5zM-4 280.7l1.2 2.9l5.8-.3l8.8-5.6l2.2-4.7l3.5 6.3l.9-1.6l-2.8-4.7l6.1 .8l-1.4-5.6l4.3-2.1l2.1 .5l.3 3.1l3.6 .1l6-5l1.8 1.3l0 4l-2.5 .1l6 1.3l4.8-5.5l2.2 2.5l-.6 4.2l2.3 3.9l3.7 1.2l0 2.3l11.2-1.7l3.1 5l10.6 3.4l.6 3.3l-1.6 .5l-3.3 8.8l1.7 0l-5.7 8.4l3.1 2.2l.3 2.8l1.7-1.3l10 1.5l.5 2.7l3.7 .4l2.3 5.2l3.7 .5l-3.2 5.9l1.6 2.4l5.2 .3l1.5 9.9l-9.2 7.4l-1.2 6l-1.3-2.5l-5.1-.3l-9.8 17.6l1.6 2.2l-.9 4.5l5.9 8.4l-1.8 6.3l-14.6 4.3l-3-7l-4.3-.6l-1.6-5.2l-3.6 .4l-8-7.1l-5 .1l.6-7.7l-3.2-2.9l3.2-12.3l-2.9-.3l-4.4 4.5l-1.5 6.4l-8.6 3.4l-9.9-1.5l-2.5-3.3l3.4-3.9l-3.4-5.1l3.1-6.9l-3.2-.3l-4.9-5.6l-4.3 1.2l-4.9-1.5zM194 44.9l.8-15.3l-4.8-.6l-.1 2.9l-2.5 2.1l-1.6-2.5l1.3-6l4.2 1l-1.6 2l5.4 .6l-2.3-17.9l-1.6-2.1l-6.1-.9l-5.1-7.7l-3.1 1.6l3.1 5.8l-8.4-4.6l1.7-7.3l63.5 0l1 1.5l4.6 .1l-6 5.8l-5.9 .9l-2.5 2.3l6.5 .6l-.4 2.5l-2.6 .8l5.1 11.6l-1 3.4l-8.1 2.6l1.1 1.5l-2.4 .5l4.3 2.6l-5.2 3l6-.7l6.2 3.5l1.1 6.3l-2.3 .8l1.7 3.2l-4.9-1.9l-.5-4.4l-7.1 8l-4.8 .5l-3.8-.3l-1.2-2.8l-11.8-3.1l-9.9 .1zM323.1 55.5l-1.4 5l-8-.7l-6.5 2.5l-17.9-9.3l-.2-2.1l4.1-1.8l-3.6-4.6l2.3-3l6.3-.8l5.5 5.2l9.2 4.5l-.8-2.3l3.3-1.2l-.3-3.1l5.7 5.3l2.3 6.4zM266.5 44.7l2.8 3.1l-5.4 1.4l-7.9-9.5l6.4 5.2l1.8 0l-.2-1.5l2.4 3l.1-1.7zM346.4 36.3l4.8 1.7l.3 3.3l-7.9-.5l-5.7 4.8l-3.8-1.4l2.5-5.3l4.4 0l-.9-4.9l6.3 2.3zM248.7 39.8l2.2 6.1l-3.9 1.4l-3.8-1.7l4.8 .8l-1.9-1.9l-6.7-.9l-.9-4.2l3.6 2.1l-2-4.3l-4.5-.1l.4-2.1l-2.8-.6l6.7-1.4l8.8 6.8zM283 35.4l4.1-7.2l-1.9 8.1l-6.9 17.9l-1.9 1.1l-3.8-6.7l5-3l-1-3l6.4-7.2zM457.1 29.6l-3.2 9.1l-11.8-3.8l-3.9-3.2l3.2-13.5l15.7 11.4zM186.5 15.9l-3-2.3l-1.1-5.4l3.5 2.3l.6 5.4zM275.3 34l-5.1 2.3l-12.4-4l-1.5 1.7l-4.7-1.4l3.1-3.4l-1.8-2.8l-4.5-.9l.9 4.6l-1.6-.1l-.2-5.6l-4.1-3l.2-5.7l-3.4-.9l-.8-1.2l2.4-1.2l-5.5-4.1l4.4 1.4l-5.3-4.2l5.1-2.8l3.2 2.6l14.2-6.2l2.3 1.1l.6-2l8.5 5.6l-1.8 0l.8 1.9l-3 2.9l2.1 .9l5.5-3.1l-1.6-2.1l1.9-.2l-.9-3.3l.9 .9l.6-3.2l4.5 8.2l-7.6 2.8l5.3-.3l6.1 10.3l-1.4-1.2l-1.1 1.4l1.8 4.7l-1.3 5.8l-2.1 3.4l-2.7 .4zM355.4-4l1.3 3.3l-4.8 3.4l-1.5-4.5l1.8-2.2zM331 45.1l2.4-.3l2.9 3.8l-8.5 9.4l.3 8l-1.6-.9l-2.5-4.9l1.8-4l-8.1-14.1l6.9-2.7l-1.6-3.1l-9.2-4l8.6 2.7l-4.5-4.9l3.6-1.3l-3.2-.6l-.4-3.5l-2.8 1.8l-9-2.7l-6.6 1.5l-1-2.8l2-.8l-1.9 .4l-3.2-4.5l1.2-1.7l-3.4 .8l-.9-1.7l5.3-2.9l-2-6.4l-3.5-.6l2.7-3l-.6-2.4l-6.2-3.7l63.4 0l-2.3 2.7l-6.2 1l-5.5 7l1.1 3.4l8.6 4.6l1.2 4.8l-11.4 4l-3.5 5.6l-.9-2.6l-2.3 .6l1.1 2.1l5 .7l-2.1 3.6l1.8 4.4l-5.3 2.3l-4.9-2.6l-1.2 4.5l1.5 1.2l1.6-1.8l3.3 3.6zM536 576l-28 0l-3.7-3.9l.4-6.3l-9.3-1.4l7.3-9.1l8.6 .3l-2.5-1.7l2.8-1.6l-1.6-2.1l2.2-3.6l-3.1-.5l-.7-2.7l2.3-5.8l-1.6-7.8l8.5-3.6l1.9-5.5l-2.4-5.4l-9-2.5l6.6-6l9.1 5l2.2-2.4l2.2 2l7-1.7l-2.9-10l2.9-1.9l.8-5.4zM536 489.1l-.6-4.6l-4-4l-1.1-7.4l-4.6-5.9l.9-6l3.5-5.6l-.1-5.1l6-11.6zM536 336l-9.4-1.8l6.1 13.2l-2.1-.9l-5.9 2.9l-6.4 6.2l-12.8-18l-3.3 .4l-2.6-2.8l.6-2.9l5.7-2.6l2.9-4.9l-3.8-5l-4.1-1l-2.2 2.4l-3.6-1.5l-4.2 2.8l-.5-4.8l-4.9 .2l-2.4-4.4l-4.8 .6l-9.3-4.3l-3.5 1.5l-4.1-7.9l.6-3.5l-5.2-3.7l-1.4 1.9l-4.2-2.6l-1.8 1.9l1.5 2.1l-.6 6.5l-7 0l6-13.3l2.6-13.5l-2.5-4l-.6-7.4l-9.5-5.3l.9-8.2l-6-9.5l7.2-17.5l-3.1-3l1-7.4l-5.1-3.5l-1.6-5.9l4-12.6l-10.6-10.4l-10.5-7.4l1.6-2.8l-.8-4.1l8.1-5.8l1.5-9.1l2.5-4l-5.9-17.9l-1.4-8.3l1.3-6l9.6 5.9l2.4 3.9l1.4-2.7l-3.2-4.2l1.2-4.3l2 0l.3-5.2l-1.9 2.5l-.4-2.7l-5.4-1l-.5-2.4l-2.7 1.7l1.7 2.3l-4.6 1.4l-4.7-5.4l1.4-2.1l7.9 1.1l15.4-7.3l43.6-13.9l10.9-2.1l-2.4 1.3l4.5 0l1.4-2.4l-3.2 .6l5.6-4.5l-1.8 2.4l3.8-1.7l0-1.5l-1.7 .8l8.9-11.2l17.8-4.7l6.3-5zM529.8 451.7l.3 3.9l-3.5 5.6l-.9 6l4.6 5.9l1.1 7.4l4 4l.1 12.4l-3.2 2.8l2.9 10l-7 1.7l-2.2-2l-2.2 2.4l-9.1-5l-5.6 4.3l-.3 2.1l8.3 2.1l2.4 5.4l-1.9 5.5l-8.5 3.6l1.6 7.8l-2.3 5.8l.7 2.7l3.1 .5l-2.2 3.6l1.6 2.1l-2.8 1.6l2.5 1.7l-8.6-.3l-6.1 8.1l-6.2 3.6l1.8 9l-6.7-2.7l-8.7 .5l-.3 2.2l-129.7 0l-6.3-6.6l-.3-5.4l-5.7-2.6l-.6-5.5l3.7-3.8l-.9-2.1l-18.1 7.4l-10.6-2.4l-2.5 2.4l-4-1.1l-5.7 1.6l-7.1 12.5l-5.1 .4l-6-1.5l.7-2.8l-3.8-2.2l-6.5 1.1l-1.1-5.8l-3.5-3.9l-7 8.4l-3.6 1.3l-9.5-5.2l-.7-5.7l-11.3-2.6l1.5-3.3l-3.9-10.1l5.2-12.2l-4.1-5.3l5.1 .7l3.8-4.2l2.7 3.5l4.5-.5l1.4 3.9l1.8-.5l2.3 8.4l5.1-.9l-1.9 6.6l5.9-2.1l4.9-6l0-11.7l2.2 2.9l5.1-2l6.3 3.2l4.4-.9l-.7 2.2l5.1 6.6l4.2 .2l4.5-2.7l1.8 2.3l6-3.2l1.1-4l5.6-.5l2.7-4.9l8.2 .9l4.7-2.2l9.6 .3l1.3-2.1l-1.1-4.5l2.5-1.6l0 3.4l7.5-.8l3 4.1l6.2-3.1l4.4 .5l2.2 3.6l-1.5 3.8l9.1 5.6l2.9-12.4l-2.2-3.5l-5.1-.7l4-7.9l-10.3-17.3l5-5.3l7-4.4l9.8-2.8l5.2-4.5l2.1-12.8l6.9 .6l3.7 2.8l3.3-4.9l.7-10.9l7.1 4.2l1.8 2.5l-1 2.3l2.6 2.3l9.8 2.2l5.8-5.6l8.8 4.4l1.1-6.3l4-6.7l6.1-.2l.5-12.3l1.6-2.6l5.4 1.1l.2 3.6l4.1-.9l1.2-2.2l16.5 8.3l5.5-1l11 8.4l11.7 .9l2.4-4.3l3.8-.5l4.7 1.6l1.2 2.8l8 1l2.9 7.4zM263.5 576l3.2-11.7l3 1.3l4.8-1.3l3.8 2.2l-.7 2.8l11.1 1.1l7.1-12.5l5.7-1.6l4 1.1l2.5-2.4l10.6 2.4l18.1-7.4l.9 2.1l-3.7 3.8l.6 5.5l5.7 2.6l.3 5.4l6.3 6.6zM266.7 564.3l-3.2 11.7l-166.2 0l6.2-5l.6-11.9l9-4.9l1.3-4.2l13.7-15.8l-1.3-2.5l-5.5 .9l4.9-6.4l-.5-2.3l8.3 0l-.5 3l3.1 1.6l6.6-1.3l.3-3.4l2.9-.2l-.2-3.2l6.3-3.4l-1.2 2l3.1 1.3l5.6-3.3l3.6 2.2l5.3 0l7.7-3.9l5 2.6l6.8-2.6l1.5 2.1l1.9-4.3l-6 1l-2.8-1.6l2.9-6.4l4-2.4l2.3 2.9l1.2-2.2l2.8 2.2l.1 4l3.2-1.6l4.4 4.3l4.5-1.7l6.7 .5l14.9 8.9l4.1 5.3l0 2.7l-6.6 12.9l1.1 6.6l-1.5 2.8l15.5 3.2l.7 5.7l9.5 5.2l3.6-1.3l7-8.4l3.5 3.9l-.2 4.7zM134.6 151.7l-.5 18l-4.9 9.2l-1.1 11.5l-.7 1.3l-11.4-.6l-1.4 1.1l1.7 3.8l-2.9 1.1l1.7 5.3l7.5 1.8l3.1-1.2l2.9 5.6l-.9 8.7l-14.3 11.7l5.5 5.8l-3.8 3.9l-10.2 3.3l-3.5-.8l-1.3 2.5l-8.9-4.9l-1.3 .8l2.6 2.8l-3-.7l-6.2 2.4l.3 5.4l3.1 1l.7 3.5l2.8 1.2l-.6 3.2l4.8 8.8l-.4 7.3l-5.6 8.7l.2 2.6l3.9-.6l-.4 1.8l-8.5 7.8l-3.5-.7l.9 5l5.2-.5l-.1 2.8l2.6 1.4l-.3 3.6l-3.6 3.7l1.2 2.9l-10-1.5l-1.7 1.3l-.3-2.8l-3.1-2.2l5.7-8.4l-1.7 0l3.3-8.8l1.6-.5l-.6-3.3l-10.6-3.4l-3.1-5l-11.2 1.7l0-2.3l-3.7-1.2l-2.3-3.9l.6-4.2l-2.2-2.5l-4.8 5.5l-6-1.3l2.5-.1l0-4l-1.8-1.3l-6 5l-3.6-.1l-.3-3.1l-2.1-.5l-4.3 2.1l.7 6l-5.4-1.2l-1-3.3l-5.1 .8l-4.6-3l-4.5 3.5l-4.4-1.1l0-12.4l4.3 .8l-.5 3l5.9 1.2l3.6 5.5l6 .2l1.8-1.7l-1.2-2.6l-7.2-1.6l-4.2-3.6l3.2-1.3l5.7 1.3l-3.9-3.9l2.7-2.3l-4.3-2l-2.5-5.2l-5.6 .6l-.4-1.8l8.8-1.8l-2.5-9.4l5.1-1.1l14.9-21.4l9.6-40.8l2.9 0l-.4 2.5l2.6 1.7l8.3-3.3l12.3-9.3l2.8-8l5.8-5.2l15.8-6.8l13.4 .6l7.3-2.7l13.6-.7l2.9 6.4l7.6 2.8l-.3 2.7l4.7 1.4zM-4 274.2l7.2-1.4l1.2-2.5l5.5 3.4l4.1-.7l-2.2 4.7l-8.8 5.6l-5.8 .3l-1.2-2.9zM6.5 252.5l2.5 1l-.4 1.7l-6.7 .8l-4.5-4.4l-1.4 .9l0-3.8l7.5 .4l3 3.4zM41.3 160.3l-4 7.2l-2.9-.2l.3-5.2l5-6.7l1.4 .5l.2 4.4zM40.7 153.2l4.4-4.4l4.7-1.2l-9.1 5.6zM62.7 139.7l6.6-1.5l-1 1.3l-15.5 5.2l0-2.1l9.9-2.9zM73 137.3l11.3 .4l-11.2 2l-1.7-1.2l1.6-1.2zM94.7 134.7l5.1 .4l-8.3 3.1l-.4-1.8l3.6-1.7zM228.9 538.5l3.9 10.1l-2.3 3.5l-3.4-.8l1.8-12.8zM476.5 576l.3-2.2l8.7-.5l6.7 2.7l-1.8-9l5-2.6l7.1-.1l2.5 1.9l-.7 5.9l3.7 3.9z"/>
<path fill="#dcebd3" d="M403 441.3l-1.3 3.2l1.3 1.3l-.7 6.4l-.9 1.8l-1.8 .7l-.6 2.4l-3.7-2.8l-4.3-1.2l-2.6 .6l-.7 9.3l-1.4 3.5l-5.2 4.5l-9.8 2.8l-4.1 3.5l-2.9 .9l-5 5.3l.5 2.5l3.3 3.8l1.2 3.4l2.8 2.5l2.5 5.1l-4 7.9l2.9 1.2l2.2-.5l2.2 3.5l-1.9 7.5l.5 3.2l-1.5 1.7l-2.8-.4l-6.3-5.2l.3-3.2l1.2-.6l-2.5-2.4l.3-1.2l-4.4-.5l-3.9 2.6l-2.3 .5l-2.2-1.8l-.8-2.3l-7.5 .8l0-3.4l-2.5 1.6l1.1 4.5l-1.3 2.1l-9.6-.3l-3.4 .6l-1.3 1.6l-8.2-.9l-2.7 4.9l-5.6 .5l-1.9 2.3l.8 1.7l-3.2 .5l-2.8 2.7l-1-.1l.1-1.7l-.9-.5l-4.5 2.7l-4.2-.2l-.8-2.7l-4.3-3.9l1.6-1.4l-.9-.8l-4.4 .9l-6.3-3.2l-2.9 2.1l-2.2-.1l-1.1-.9l.1-2.2l-1.2 .2l-.3 5.4l1.4 2.2l-1.1 4.1l-2.3 1.9l-2.6 4.1l-2.7 1.7l-3.2 .4l1.3-2.2l.6-4.4l-5.1 .9l-1.1-3l1.1-1.5l-2.3-3.9l-1.8 .5l-1.4-3.9l-4.5 .5l-.9-.6l-.2-2.2l-1.6-.7l-2.6 3.7l-3.7 .5l-2.4-.6l-11.4-7.7l-3.1-.3l-.6-1l-6.7-.5l-2.9 1.6l-2.5-.1l-3.5-4.1l-1-.2l0 1.8l-2.2 0l-.7-1.9l.6-2.1l-1.4-.2l-1.4-2l-1.2 2.2l-1.3-2.9l-1.8 .3l-.1 1.5l-3.1 .6l-2.9 4.6l0 1.8l2.8 1.6l2.5-1.1l3.5 .1l-1.9 4.3l-1.5-2.1l-1.3 .1l-2.8 2.5l-4.2-.4l-1.2-1.8l-2.3-.4l-2.2 .4l-3.2 2.9l-2.3 .6l-5.3 0l-.6-1.7l-3-.5l-2.2 2.5l-3.4 .8l-3.1-1.3l1.7-.4l.4-1.7l-2.9 .8l.1-1.5l-2.8-4.1l-.4-2.4l1-1.5l-.4-3.4l1.6-4.3l-.3-2.1l2.5-5.7l0-2.1l-1.8-3.3l.2-3.9l1.3-4.1l3.1-4.8l.5-3.8l1.9-1.9l-.4-4.3l1.3-5.3l1.8-2l-.2-6.1l6-6.9l.4-2.3l1.9-.3l.9-1.9l2.2-1.1l4.4-9.8l-4.4-1.3l-6.4-3.6l-3.1 .2l-3.3-1.1l-1.9 .9l-3.8-.2l-1.1-1.5l-4-2.1l-1.5-2.2l.1-1.5l-2.6-1.1l-2.5 .6l-3 3.5l-4.8-.6l-2.8-1.8l-1.8 2.2l-1.4-2.5l.1-2.3l-3.9-1.6l-3.2-.1l-.6 3.9l-4.4-.7l-.4-3.6l-.9 .5l-1.6-4.2l-3.4-3.5l-.1-1.4l1-.5l-2.8-4.5l-4.4-2.6l-2.3 .6l.4-7.8l2.5-4.1l0-2l3.1-1.9l.4-6.2l-4.3-.8l-2.5-2.1l-1.3 .3l-.6-1.6l-2.7-1.7l-2-4.4l-.4 .9l-2.7-6.9l1.1-7.5l1.7-1.1l-.7-2.1l1.7-1.9l2.7-.8l1.3-3.1l3-.2l.5-1.4l-1.5-2.5l0-7.4l-3.2-.8l-2 .5l-1.6-2.4l-.3-1.3l3.5-4.6l-3.7-.5l.2-1.3l-3.2-4.6l-3 .3l-1.7-5.6l1.3-.4l.4-2.5l1.9-.8l.3-3.6l-2.6-1.4l.1-2.8l-5.2 .5l-.9-5l1.2-.6l2.3 1.3l1.8-2.8l6.7-5l-.9-.8l1.3-1l-1-.3l-1.9 1.4l-1-.5l-.2-2.6l3.7-6.9l1.9-1.8l.6-2.7l-.6-7.9l-4.4-5.5l.6-3.2l-2.8-1.2l-.9-1.2l.2-2.3l-3.1-1l1-2.8l-1.4-2l6.3-3l3 .7l-2.6-2.8l1.3-.8l4.1 2.3l1.6-.3l.9 1.3l2.2 .7l.1 .9l1.5-.4l-.2-2.1l3.5 .8l2.7-1.9l8.7-2l2.8-4.2l-1.5-1.8l-4.1-2.1l.2-1.8l1.3-.4l1.5-2.3l3.3-.6l2.2-3.1l5.8-4.8l-.7-3.3l1.5-5.1l-2.9-5.6l-3.1 1.2l-6.4-1.3l-1.9-1.4l-.9-4.4l2.9-1.1l-1.6-1.5l-.1-2.3l1.4-1.1l5.3-.4l6.1 1l1.8-12.8l4.9-9.2l.5-4.3l-.9-7.3l.9-6.4l2.9-5.1l4.1 1.4l-2.7-2l-9.2-.3l-1.4-.7l-.7-1.8l0-4.8l1.1-4.1l2.8-.2l.9-1.3l-2.2-3.3l5.7-5.1l3.2-1.2l6.1-.7l1.9 1.1l18.1-2.8l3.2 1l.9 4.6l3.1 2.9l-.3 1.2l1.9 1.2l-.5 1.8l-3.9 1.6l.7 2.1l.9 1.4l1.7-.4l2.7 2.8l2.2-.1l2.2-4l.2-2.3l-1.1-1.4l-2.5 .4l1.6-5.7l2.3-.3l2.4 2.6l6.7 2.2l-2.5 3.7l-.3 5.4l.9 2.9l-.3-7.5l2.8-4.7l-3.4-8.9l4.2-12.1l3.6-1.3l4.3 3.2l3.2 .7l14.2-2.6l2.9 .6l12.1 17.5l4.7 2.2l5.6 .9l-2.1-1.7l-5.1-.9l-4.4-3.3l-.7-4.9l-3.8-2.4l-1.8-5.4l-7-3.9l-7.7-1l-1.9 .7l-2.8-2.7l-3.3-6.4l2.3-.8l4.4 1.2l.9-4.3l-1.9-2l.1-1.2l-2.3 0l-2.4 1.4l-2-3.6l1.5-3.5l-.3-1.4l3.3-1.2l1.6-2.7l-3.3 1.7l.3-.9l-6 .7l-2.5 1.5l-2.2-1.3l-1-3l3.9-1.5l-1.9-1.2l-.6 .8l.6-2.6l9.7-.8l4.8-3l.3-2.7l-5.1-6.2l-2.5 .3l1.1-1.4l-1.4-3.5l-5.3-4l.3-1.5l-2.2-5.5l.8-3.4l2.9 .5l3.8-1.1l15 3.6l1.9 3.1l3.7-.1l2-1.1l2.8 .7l5.2-3.6l0 2.3l6.3 1.5l2.6 1.5l.9 1.8l2.9-.9l-.1-1.3l2.3 .7l2.8 5l-1.9 0l-1.6 1.8l4.2 0l-.3 7.3l-2.4 3.5l-5.2 2l1.8 .9l10.5-2l2.5 2.1l-.9 .8l.3 3.3l-1.9 1.6l0 3.1l1.5-1.1l2.2-5l3.5-1.6l11.3 5l5.3 3.6l1.9-.3l6.4-4.2l3.4-.4l-1.8 .5l2.4 .7l2.9-1.6l1.3 .4l-2.1 2.2l-.7-.5l1 5l-.1 4.9l-.9 1.5l-7.1 5.2l-3.2 .4l-2.5 3l1.1 2.6l3.8 .9l1.2 2.3l6.1-3l5-.7l1.2 1.9l1.4 .4l.6 2.7l1.6 0l1.6-1.3l5 3.5l2.5-8.4l2.2-.1l3.5-6.7l1.3-.8l4.9 .3l11.1-2.9l.2 5.2l1 1.1l-.9-3.2l1.9-2.2l-1.6 .4l.3-.6l3.2-3.8l6.3-4l6.4-11l1.3-.9l.6 1.7l1.8 .6l11.6 .3l1.8 .9l-2.1 1.1l-7.1-1.1l-1 .9l-1.9-.2l-.6 1.1l-1.2 0l.6 1.3l-1.6-.3l-1.2 1.2l-1.4-1.1l-2.1 .1l-.6 2.7l-1.1-.4l-.2 2.1l-1.1 .6l.1 2.6l1.8 1.2l1.9-.3l-1.2-.1l-.4-1.5l3-3.9l2.8-1.2l-.9-.8l3.4-.1l3.3-2.7l-.8 2.8l.8-1.8l1.2 1.4l2-.8l1.4 2.1l1.4 0l3.1-3.7l4.2-1.2l-.1 2.1l2.6 1.9l-.7 1.3l1.4 4.7l2.4 .2l-1.2 .9l6 1.8l2.3 3.5l-1 .9l3.3-.5l-.8 1.4l1.4 0l2.7 4l.8-.4l-1-1.8l5-1l4.4-2.2l-.5 1.4l4.4 3.1l-2.5 4.4l3.8 3.3l.3 1.9l2.5 1.5l-3.7 3.6l0 1.6l8.9 6.3l6 1l1.9-1.4l1.3 .6l.2 1l-2.4 1.9l2.2 .4l1.6 12.5l2.2 4.1l1.8 10.7l1.6 1.8l-2.5 4l.4 3.7l-1.9 5.4l-8.1 5.8l.8 4.1l-1.6 2.8l10.5 7.4l1.9 3.3l2.4 2.3l2.5 .9l3.8 3.9l-1.4 3.9l.9 1.3l-1.6 3l-2.2 1.8l.3 2.6l1.6 5.9l5.1 3.5l-1 7.4l3.1 3l-2.4 4.8l-.7 5.7l-3.6 4.5l-.5 2.5l2.1 2.3l.4 3.4l3.5 3.8l.4 3.3l-1.3 2.5l0 2.4l8.8 4.5l1.2 1.7l.1 6.5l2.5 4l-2.6 13.5l-4 9.6l-2 2.5l-.6 2.9l-1.5 1.4l-5.8-2.2l.6-5l-3.2 .6l1-4.1l-2.9-2.1l-.9-1.9l-.7 1.2l-2.7 .4l-1.7-1.3l-2.8-.2l-1.9 3.5l2.6 .8l-.4 1.1l3.5 2l-.1 1.7l-1.2 1l-4.7 .1l-1.7 1.9l-6.3 3l-2.2-.1l-2.3 1.6l-1.3-.1l-.3 2.5l-2.1 1.2l-11.2 1.1l-1.6 1l.3 1.8l-3.1 4.3l-1.6-.2l-1.6-1.9l-3.4 4l-2.2-.9l-2.9 5.4l-6.1 .4l-.4 3.8l-1.9 1.9l-5.4-2.6l-3.3 .8l-1.9 2.4l-7.3 .3l-7.1 8.4l-1.5 6.4l-2.9-4.9l.6-1l-2.6-1.1l-.3-2.2l-3.8-.8l1.4 2.5l-1.3 2.2l4.3 4.6l.1 4.5l2.2 2.1l.1 1.6l8.4 4.2l.8 1.6l-.4 1.5l2.3 1.3l-1.4 5.5l-.9-.2l-.3 3.3l-2.9 2.4l1.5 2.7l3.2 1.9l.1 3.3l1.9 1.6l1.5 4.6l1.6 .9l.8 5.2l2.7 1.6l2.7 4.7l3.3 .6l1.1-1.1l4.7 2.9l7.2 11.5l4.9 1.5l2.9 3.6l1.1 3.9l2.4 2.1l1.1 .5l1.3-2.1l3.8 1.6l.4 2.4l1.3 1.7l2.9 .9l3.7 6.6zM419 106.8l-1.4 2.1l1 1.9l-6.1-.2l-4.5 2.3l-4-.4l-.7-.9l4.4-2.3l-1.1-6.2l2.8 .5l-.6 3.1l1.2-1.3l1.6 0l-.6 .9l1.5 .4l.1-4.1l-4.4-4.1l-1.1 .7l.3 1.3l-1.3 1.7l-1.5 .5l.9-2.2l-.6-.9l-2.8 2.1l-.7-.3l1.6-5.1l-2.5-3.3l.3-.8l2.2-.6l1.6 3.7l6.6 3.7l7.8 7.8zM118.5 128.4l-3.1 .9l1.4 1.9l-1.2-1l-2.1 .1l-.7-1.5l5.1-1.3l.6 .9zM121.6 124.1l7-1.4l1.6 .4l-8.6 1zM132.1 121.8l1.9-1.1l6.7-.2l-2.1 1.1l-6.5 .2zM172.1 120.9l1.3-1.2l1.7 .8l-1.7 .8l-1.3-.4zM147.7 118.3l3.5-.1l.9 .9l-4.6 .2l-.1 1.2l-1.2 0l-.3-1.9l1.8-.3zM153.5 118.3l1.1-1.3l5.1-.1l-2.7 1.4l-3.5 0zM304 104.1l2.2-2.7l2.8 0l-1.6 4l-.5-2.4l-.8 2l-2.1-.9zM310.3 98l3.5-2.4l-3.1 3.6l-.4-1.2zM206.2 69l-2 3.1l-2.8 .6l-1.3-1l0-1.3l2.8-1.8l3.3 .4zM299.2 71.9l2.3 4.2l-5.1-.8l-.3 .7l-2.7 0l-.6-2.4l-3.7-.2l1.1-3.5l3.6-1.7l3.4 1.4l2 2.3zM375.7 64.2l-3.2 8.3l1.6-8.1l2-.7l-.1 1.9l-.3-1.4zM398.3 77.6l2.6 2.9l-1.4 1.9l-.3 2.5l-1.3-.3l.9-.3l0-1.1l-2.5 .5l2.5-2.3l-3.8 1l2.9-2.3l-2.5 .8l-1.2-.8l-4.8 .8l-3.1 3.5l-1.8 .7l-.2 1.6l.3-.8l2.3-.3l-.4 2.6l-3.9-1.6l1-2l-.9 1.3l-1.9 .4l-2.3-1.3l-.3-1.3l-2.2 .4l0-1l1.2-.3l-2.5-1.7l1.3-2.7l3 .4l1.8-.9l-1.2-.4l0-1.8l-1.1-.8l-2.2 .4l1-1.8l3.6-1.8l-1.6-.7l0-1.5l-1.9 .5l-1.7-2.3l4.1-.8l1.9 1.1l.3 1.3l.1-2l2.8-2.3l-.9 4l1.5-.5l.3-.8l-1.2-.4l.6-1l2.2 4.7l3 .3l.6-1.8l-.9-2.2l.9-1.3l-3.2 .9l-2.9-3.6l-3.1 2.8l-1.6 .2l1.6-5l-2.8 .5l.3-1.2l7.6-2.3l1.1 1l-2.5 2.4l1 2.8l2.3 1.1l7-.6l1.6 3l-3.8 3.5l-.2 1.9l1.3 2.7l3.6 1.5zM180.7 58l2.8 4l-.6 .4l-1.3 .4l-2.5-3l1.6-1.8zM187.4 54l2.2 .1l1.7 1.6l-1.1 2.8l-4.7-.5l-2.3-1.4l1.7-2.2l2.5-.4zM181.9 41.5l-.3 2.3l1.4 1.2l10.7 .1l-6 .5l-2.3 1.3l-4.6-.8l-1.4 1.4l-.6 7.4l.4-11.1l3.2-7.8l1.6-2l1.9 1l-2.7 .4l1.4 .9l-2.7 2.7l0 2.5zM192.9 67.7l2.7-.9l-.3 2.2l-.9 1.5l-2 .5l-1.1-1.3l1.6-2z"/>
<path fill="none" stroke="#a9c49f" stroke-width=".7" stroke-linejoin="round" stroke-linecap="round" d="M237.8 130.5M285 105.4M255.7 120.5l-.7 2.8l2.3 3.3l-.5 3.1l-1.5 .7l.4 2.9l5.3 4.8M254.1 121.4l1.6-.9M252.1 121l2 .4M250.4 123.9l1.7-2.9M249.6 123.8l.8 .1M247.5 125.7l2.1-1.9M246.4 125.5l1.1 .2M240.8 129.2l5.6-3.7M239 126.8l1.6 .8l.2 1.6M237.8 130.5l1.2-3.7M261.2 138.1l.4 1.5M261 138.1l.2 0M246.2 272.2l-1 1.4l1.1 3.7M246.4 277.2l1.4 1.2M246.3 277.3l.1-.1M248.3 278.3l2.1 .8l1 3.2l3.1 1.2M247.8 278.4l.5-.1M254.9 283.5l2.8 1.6l-1.4 4.3M254.5 283.5l.4 0M256.3 289.4l-1.2-2M255.1 287.4l-1.7 .7l1.8 1.3l-1.1 3.9l2 .7l.7 1.3l-.9 1.8M254.1 297.3l-.9-1M253.2 296.3l-.7 .2M252.5 296.5l-1.6-.2M250.9 296.3l-1.5 .8l.8 3l-1.4 .8M255.9 297.1l-.9 0M255 297.1l-.9 .2M248.8 300.9l-1.8-.4M247 300.5l-.5 1.2M247 301.4l.3 1.5M246.5 301.7l.5-.3M248.4 302l2.2 2.4l-1.4 3.2l-2.9 1.2l-.3 2.6M247.3 302.9l1.1-.9M246 311.4l-.2-.1M245.8 311.3l-1 5.4l-1.4 2l.3 1.9M248.5 317.8l2.2 .7l.5 3.1M246 321l.3-2.3l2.2-.9M244.5 320.3l1.5 .7M243.7 320.6l.8-.3M251.2 321.6l-.1-.1M251.1 321.5l-.9 .9l.3 5.7M277.2 256l-.6-.4M282.9 256.9l-2-1M280.9 255.9l-3.7 .1M286.4 259.9l.1-1.7l-2.6-1.3M283.9 256.9l-1 0M285.6 259.6l.8 .3M295.1 271.2l-7.4-1.4l0-3.1l-2.1-7.1M309.3 291.1l-3.1-.6l-.3-4l-3.5-3.6l3.6-1.8l1.2-1.8l-3.5-5.6l-2.1-1.6l-4.8-.9M296.8 271.2l-1.7 0M319.1 296l-2.1-4.9l-1.3-.8M315.7 290.3l-1.4 .4M312.4 290.6l-1.9-.2M310.5 290.4l-1.2 .7M314.3 290.7l-.8-.1M313.5 290.6l-1.1 0M340.1 291.4l-.8 3.1l1.3 1.7l-3.1 5.3M329.6 300.1l-3-3.1l-3.3-1.7M323.3 295.3l-4.2 .7M334.5 300.4l-2.7-.7M331.8 299.7l-2.2 .4M337.5 301.5l-2.1-1.6M335.4 299.9l-.9 .5M285.3 109.2l2-.6l-2.1-.9l-.2-2.3M284.3 108.1l1 1.1M279.5 119.3l-.6-7l5.4-4.2M283.4 122.3l-3.5-3M279.9 119.3l-.4 0M286 132.1l1-1.2l-.6-4l.7-1.6l-.8-2l-2.4-1.2M283.9 122.1l-.5 .2M284.9 130.5l1.1 1.6M283.1 130.8l1.8-.3M282.4 130.6l.7 .2M276.1 138l.9-1.5l4.6-2.3l.8-3.6M275.7 137.8l.4 .2M272.7 143.5l1.4-4.9l1.6-.8M314.2 164.3l.4 .7M312.4 164.8l1.8-.5M314.6 165l-.5 1.1l2.3 .6l1.3 2M319.8 167.8l1.8 2.3l1.7 .3l-.7 1.8l6.1 2.9M317.7 168.7l2.1-.9M333.2 174.5l1.3 1.7M330.3 174.9l2.9-.4M329.3 174.8l1 .1M328.7 175.1l.6-.3M336.5 175.8l1.3 .7l1.1 3.3l-1.6 2l.6 1.8l-.8 1.2l1.5 3.3l-1.7 3M334.5 176.2l2-.4M336.9 191.1l-.8-.1M336.1 191l-1.4 5.7M335.7 196.6l-.3 1.8l.8 .6M334.7 196.7l1-.1M338 197.1l2 1.9M336.2 199l1.8-1.9M341.2 198.7l-3.5 14l1.8 3.2l-2 3.8l6.7 9.9l2.7 2M340.6 198.9l.6-.2M340.4 198.9l.2 0M340 199l.4-.1M348.3 230.8l3.2 2.8l2.5 .8M346.9 231.6l1.4-.8M356.2 232.5l7.4 3.5l1.3 2l3.5 .4l4.2 3.3M354 234.4l2.2-1.9M377.4 241.1l2.1 .4l-3.2 4.8l.9 5.5l-4.8 5.3M376.5 242.3l.9-1.2M375.3 241.4l1.2 .9M372.6 241.7l2.7-.3M171.4 327.5l1.3-.8l1.2-3.1l-1.8-4.1l.6-2.2M169.8 326.2l1.6 1.3M171.1 344.6l1.1-.8l-.9-2.9l-3-4.5l-2.2-.8l1.9-3.5l-.8-.7l.2-3.6l2.4-1.6M169.1 344.5l2 .1M168.1 347.6l1-3.1M166.9 346.7l1.2 .9M163.9 354.5l.5-1.8l-1.3-2.3l1-1.8l2.8-1.9M162.9 353.7l1 .8M162.1 353.9l.8-.2M161.7 353.8l.4 .1M162.3 363.3l-1.2-2.5l-3.2-2.7l2.8-2l1-2.3M184.4 376.6l-3.4-8l.6-2.3l-.8-2.2l-5.5-5.6M175.3 358.5l-13 4.8M184.1 388.7l-2.2-7.2l4-3.4l.1-1.8M186 376.3l-1.6 .3M194.4 385.9l1.6 4.8l2.9 1.7M190.2 392.1l2-1.2l-.7-4.2l2.9-.8M185.8 388.1l4.4 4M184.1 388.7l1.7-.6M211.8 389.6l.4-.6M211 389.1l.8 .5M212.7 393.4l-1.7-4.3M199.7 392.3l1.6 1.4M198.9 392.4l.8-.1M210.9 392.6l.4 .1M209.2 393.8l1.7-1.2M211.8 392.6l.9 .8M211.3 392.7l.5-.1M203.3 393.4l-.8 2.1M201.3 393.7l2-.3M208.2 393.6l1 .2M204.3 397.9l1.2-1l-.7-1.9l1.1-1.3l2.3-.1M202.5 395.5l-.7-.7M201.8 394.8l-1.7 4.9l1.4 .8M203.9 397.3l.4 .6M201.5 400.5l2.4-3.2M184.1 388.7l-.3 1.6l2.2 5.3l-.8 1.3l2.5 1.4l-1.8 7.5l.8 1.2l-3.8 4.2l-1.2 7.9l-3 6.4l-3.4 3.4M254 326.2l-.6-1.1M253.4 325.1l-2.9 3M265.5 336l-1.1-.3l.1-1.5l-2.5-2.5l-.2-1.6l-4.1-1.7l-1.8-2.4M255.9 326l-1.9 .2M307.4 333.9l-1.6-1.4l.4-4.2l-3.3-.3M302.9 328l-1.2 1.7l-2.8 1.3l1.3 7.3l-1.5 5.6M310.4 337l-1.8-1.1l-.9-2.2M307.7 333.7l-.3 .2M325.6 334.7l-3.1 1.5M322.5 336.2l-1.8-1.5M320.7 334.7l-6.7 1.8M269.4 338.8l-2.9-3.1M266.5 335.7l-1 .3M314 336.5l-1.7-.6M312.3 335.9l-1.9 1.1M284.7 336.8l-.8-.8M283.9 336l-.8 .3M283.1 336.3l-.7-.1M282.4 336.2l-1.3 .6M288.4 338.9l-2.2-2.5M286.2 336.4l-1.5 .4M281.1 336.8l-.8-.3M280.3 336.5l-1.4 2M293.9 338.7l-.5-.8M293.4 337.9l-2.5 1.1M290.9 339l-2.2-1M288.7 338l-.3 .9M278.9 338.5l-1-.3M277.9 338.2l-.6 2.5l2.5 2M273.3 347l-1-6.6l-1.6-2.1M270.7 338.3l-1.3 .5M296.6 344l-2.3-2.5l.9-1.1l-1-1.7M294.2 338.7l-.3 0M280.5 342.6l2.1 1.7l-.7 1.6M279.8 342.7l.7-.1M298.7 343.9l-1.4-.8M297.3 343.1l-.7 .9M281.9 345.9l-1.2-.4M280.7 345.5l-1.6 .3M279.1 345.8l-.7-.3M278.4 345.5l-.9 2.6M277.5 348.1l-2.3-1.1M275.2 347l-1.9 0M250.5 328.1l-2.2 4.4l-6.2 3.3M242.1 335.8l-1.9-1.4M240.2 334.4l-1.4 1.1l-.8 6.5l-2.9 1.7l-.5 2.7l-2.6 .6M230.5 346.9l-.8-.7M229.7 346.2l-.6 .3M229.1 346.5l-.6-.3M228.5 346.2l-.5 3.6l1.2 .8l-.5 3.4l-3.5 1.7M232 347l-.7-.3M231.3 346.7l-.8 .2M220.4 352.6l-3.1-.4M217.3 352.2l-1.7 .5l-1.9 2.5M225.2 355.7l-4.3-3.2M220.9 352.5l-.5 .1M213.7 355.2l.3-.9l-1.7-.9M212.3 353.4l-3.8 1.4l-.9 2.6M207.6 357.4l-.2 0M207.4 357.4l-.6 .7l.9 .5M208.2 358.3l1.6 4.5M207.7 358.6l.5-.3M209.8 362.8l-.9-.3M208.9 362.5l-.1 5l1.9 5M211.3 371.6l1 3.2M210.7 372.5l.6-.9M213 374.7l-.4 2.5l1.2 1.1l-.6 2.9l-1.4 .6l.5 3l-1.6 1.9l1.5 2.3M212.3 374.8l.7-.1M226.9 374.7l3.4 1.2M224 375.5l2.9-.8M222 375.4l2 .1M222.9 381.1l-.3-1.6l-2.1-.7l-.1-2.1l1.6-1.3M234 375.5l-.7 5.5l1.5 .7M232.2 376.3l1.8-.8M231 375.6l1.2 .7M230.3 375.9l.7-.3M239.9 379.5l3.6 7l-1.7 4l.6 .6M237.3 381.7l2.6-2.2M236.4 379.5l.9 2.2M234.8 381.7l1.6-2.2M224 384.8l.9-.7l.2-3.7l-1.1-.7M224 379.7l-1.1 1.4M223 384.1l1 .7M221.5 384.7l1.5-.6M220.9 384.7l.6 0M215.6 388.8l2.7-.1l1.2-3.3l1.4-.7M244.6 388.7l1.6 6.5M242.4 391.1l2.2-2.4M215 388.7l.6 .1M212.7 389.3l2.3-.6M212.2 389l.5 .3M251.8 391l1 1.9M246.2 395.2l3.2-.3l2.4-3.9M253.1 392.9l.6 2.7l-.8 2l1.1 .6l1.2 3.4M252.8 392.9l.3 0M255.2 401.6l-.8-.3M254.4 401.3l-1.2 1l-.1 1.8l1.4 1.6l.1 3.3M254.6 409l-1-.5M253.6 408.5l1.2 4l-.5 .5l3 3.2M258 415.8l1.1 1.4l-1 2.1M257.3 416.2l.7-.4M258.1 419.3l-.2 0M257.9 419.3l1.5 3.6l1.3 .6M261 423.4l1.2 .6M260.7 423.5l.3-.1M262.7 424l4.6 7.3l-1 .9l.6 4.9l-1.1 4.5l1.2 1.7M262.2 424l.5 0M267.3 443.3l1.1 2.3l-2.3 2.1M267 443.3l.3 0M266.1 447.7l-.2-2.5M265.9 445.2l-2.5 2.7M261.5 446.3l-1.1-1M260.4 445.3l-1.2 2.2l2.6 3l-.9 1.2l.4 4.7l-2.1 .3l-.7 1.5l-4 2.5M263.4 447.9l-1.1-1.7M262.3 446.2l-.8 .1M254.5 460.7l-1.1-1.4M253.4 459.3l-3 1.6l-2.9 5.3l.4 .7M248.3 466.9l2.2 4.2l3.5 13.6l-.4 3.9l-1.8 4.2l1 2.3l-.6 4.7M247.9 466.9l.4 0M252.4 499.7l1.2 3l-2 1.5l.9 1.6M252.2 499.8l.2-.1M252.8 505.8l.4 6.1M252.5 505.8l.3 0M251.4 513.5l-1.2-2M250.2 511.5l-4.8 1.4M253.2 511.9l-1.2-.4M252 511.5l-.6 2M245.4 512.9l-2.6-1M242.8 511.9l-6.1 4.5M236.7 516.4l-1.4-.4M235.3 516l-2.7 1.5l-2.4 3.5M238.7 132.1l.2 2.6l3.8 4.9M251.7 138.4l4.2 3M247.3 140.8l4.4-2.4M243.9 138.5l.9 2.2M242.7 139.6l1.2-1.1M255.9 141.4l5.7-1.8M246.1 140.2l1.2 .6M244.8 140.7l1.3-.5M276.6 255.6l-2.7 2l.6 3M269.7 260.9l-4.3-2.3M265.4 258.6l-1.9 .4l-.7 3.2l-2.7 2.9l-2.8 1.4M274.5 260.6l-1.1-.8M273.4 259.8l-3.7 1.1M257.3 266.5l-.7-.7M256.6 265.8l-2.2 3.1M254.4 268.9l-2.1 0M252.3 268.9l-1.2 .8M251.1 269.7l-1.1-.8M250 268.9l-3.8 3.3M261.6 139.6l9.8 4.4M271.4 144l1.3-.5M228.9 256.2l-2.2-1.7M226.7 254.5l-.8 .7M225.9 255.2l-.3-.3M231.8 256.4l-1.8-.9M230 255.5l-1.1 .7M235 260.7l.6-.8l-2.7-3.9M232.9 256l-1.1 .4M233.7 259.8l1.3 .9M233.6 261.4l.1-1.6M232.9 261.1l.7 .3M231.8 271.2l1.8-.8l0-4l-1.7-3.1l1-2.2M246.2 272.2l-2.1-2.4M244.1 269.8l-1.4 .6l0 2.4M242.7 272.8l-2.5-2.4M240.2 270.4l-.3 1.2l-3.3 1.8l1.7 2.1M231.4 271.1l.4 .1M230.7 273.5l.7-2.4M229.4 273.1l1.3 .4M234.6 276.2l-3.8-1.5l-1.4-1.6M239.4 274.7l-.4 1.8l-2 1.6M238.3 275.5l1.1-.8M237 278.1l-2.1-1.9M234.9 276.2l-.3 0M310.7 167.2l1.7-2.4M310.1 167l.6 .2M300.7 175.1l4.7-1.4l3.7-2.5l.1-3.1l.9-1.1M290.2 173.2l3 .8M284.2 177.4l3.1-1.2l1.6-2.7l1.3-.3M295.5 173.8l3.6 1.7M293.2 174l2.3-.2M300.4 174.9l.3 .2M299.1 175.5l1.3-.6M282.5 177.3l1.7 .1M281.2 185.9l-2.2-4.4l.1-3.3l3.4-.9M286.2 192.6l-4.6-6.7M281.6 185.9l-.4 0M288.6 200.1l-1.8-3.7l0-2.3l1.1-1.6l-.8-.6M287.1 191.9l-.9 .7M287.7 199.9l.9 .2M290.8 215.3l-1.4-1.7l.8-1.2l-1.4-2.4l2.6-.7l.4-1.2l-5.4-5.8l1.3-2.4M291.5 216.4l-.4-1.2M291.1 215.2l-.3 .1M290.5 221l-.8-1.4l2.4-1.8l-.2-1.9M291.9 215.9l-.4 .5M286.6 228.5l1.1-1.3l-.9-1.5l3.8-2.3l.1-2.4M290.7 221l-.2 0M284.6 228.4l2 .1M273 231.7l2.1-2.4l9.5-.9M271.8 231.5l1.2 .2M274 234.9l-1.8-1.2l-.4-2.2M276.6 255.6l-1.4-4.5l-3.5-6l.2-3.1l2.3-2.3l-1-2.6l1.1-2.3M274.3 234.8l-.3 .1M300 159.9l0 .1M275.7 143.4l2.3 1.4l.3 2.8l14.2 10.6M272.7 143.5l3-.1M295.2 156.3l1.8 2.1M292.5 158.2l2.7-1.9M298 157.6l2 2.3M297 158.4l1-.8M342.7 291.2l6.3 1.9l2 5.1l2.8 1.7l1.8 3.4l-1.4 1.9M340.1 291.4l2.6-.2M350.8 304.8l-.8-.3M350 304.5l-3.6 3.8M353 304.9l-1.3-.2M351.7 304.7l-.9 .1M354.2 305.2l-.7-.4M353.5 304.8l-.5 .1M346.4 308.3l-.5-.4M345.9 307.9l-6 2.4l1.2 1.9l-.9 1M340.2 313.2l-.3-.1M339.9 313.1l-.6 1.7M339.9 314.8l.5 2.3l1.1 .7M339.3 314.8l.6 0M342.1 317.8l-1 2.1l-2.5 1.2M341.5 317.8l.6 0M338.6 321.1l-.7-.2M337.9 320.9l-2.1 1.6l-.3 2.5l-1.3 .5M334.2 325.5l-.9-.4M333.3 325.1l-2.1 2.1M331.2 327.2l-1.8-1.1M329.4 326.1l-2.7 2.7l.6 2.8l-2 2.2l.3 .9M365.5 253.5l3.5 2.8M361.1 256.3l4.4-2.8M358.4 255.6l2.7 .7M355.9 258l2.5-2.4M370.3 255.7l2.1 1.4M369 256.3l1.3-.6M355.4 257.6l.5 .4M351.5 258.3l3.9-.7M348 257.8l3.5 .5M341.5 261.2l5.4-1.4l1.1-2M338.9 260.5l2.6 .7M340.1 291.4l-1.9-.5l-1.5-2.9l.2-1.8l-1.3-.3l.5-3.7l-1.3-4.2l2-2.3l-1.1-7.7l1.4-1.5l.2-3.8l1.6-2.2M374.9 259.1l-2.5-2M377.5 271.9l-.5-1.4l1.4-6.2l-1.8-2.7l.2-1.6l-1.4-1.1M375.4 258.9l-.5 .2M439.1 261.9l-5.4-1.6M433.7 260.3l-9.5 3.6M424.2 263.9l-4.8-1.7M419.4 262.2l-4.6 1.9l-5.9 9.7M391.6 273.3l-5.5-3.7M386.1 269.6l-5.9 2.3M380.2 271.9l-1.4-1.1M378.8 270.8l-.2 .4M378.6 271.2l-.4-.1M378.2 271.1l-.7 .8M401 274.4l-8.6-1.2M392.4 273.2l-.8 .1M408.9 273.8l-.9-.3M408 273.5l-7 .9M331.5 340.4l-2.7-1.6l-.2-2.2l-2-2M326.6 334.6l-1 .1M333.5 341.2l-1.5-.9M332 340.3l-.5 .1M126.6 385.5l2.7 1.6l3 .2l3.3 2.4M125.5 386.2l1.1-.7M124.3 385.6l1.2 .6M114.2 390.7l10.1-5.1M137.5 388.8l1.7 5.7l-2.6 2.8l.3 1l1.6 2.7l4 1.9l-3.4 7.1M135.6 389.7l1.9-.9M113.3 390.7l.9 0M110.7 391.9l2.6-1.2M106 391.7l4.7 .2M100.3 392.2l5.7-.5M139.1 410l-.3-.1M138.8 409.9l-.2 3l2.2 2.4M141.6 415.2l.1 .2M140.8 415.3l.8-.1M225.6 254.9l-.9 1.4l-3.4 1.3l.9 .9l-.8 2.5l-4.6 4.4l-.5 2M210.4 265.1l-2-1.2M208.4 263.9l-4.6 2l.6 3.7l1.2 1.1l-3.8 1.9M213.7 268.5l-2.3-.9l-.8-2.6M210.6 265l-.2 .1M216.3 267.4l-.5-.2M215.8 267.2l-2.1 1.3M201.8 272.6l-1.6-.4M200.2 272.2l-2.5 .5M197.7 272.7l-.7 0M197 272.7l-2.2 .7l-3.7 4.7l-.5 1.5l1.6 1.7M196.3 279.3l1.4 6.2l-2.3 2.9l.4 1.6l-1.8 1.2M192.2 281.3l4.1-2M194 291.2l-1.4-.4M192.6 290.8l-4.1 0l.8 4.7l-2.2 3.1l-1.1 3.8M186 302.4l-.5-.1M185.5 302.3l-3.1 3.3l-1.5 .3M180.9 305.9l-1.5-1.3M179.4 304.6l-6.7 6.4l1.6 2.5l-1.6 3.8M159.2 301.2l2.3 .7l-.5 2.8l3.9 3M157.7 307.4l-.4-4.5l1.9-1.7M156.7 307.1l1 .3M154.6 311.4l.4-1.1l-.9-1.2l2.6-2M165.9 307.4l.5 4.1l3.2 5.5M164.9 307.7l1-.3M154.2 311.1l.4 .3M151 314.1l3.2-3M150.2 313.9l.8 .2M144.9 315.9l5.3-2M143.3 315.7l1.6 .2M138.1 321.5l3.6-1.5l.4-3.7l1.2-.6M171.1 316.4l1.6 .9M169.6 317l1.5-.6M134.9 320.3l.9 1l2.3 .2M132.5 322.8l2.4-2.5M131.6 322.4l.9 .4M130.5 323.6l1.1-1.2M129.2 323.2l1.3 .4M121 331.7l1.1-1l0-3.1l7.1-4.4M119.1 330.1l1.9 1.6M115.2 339.4l3.4-1.1l-.9-4.2l-1.1-.8l.3-2.2l2.2-1M102.4 336.7l2.3 2.8M101.3 340.6l2.1-.7l-1.4-2.5l.4-.7M109.9 337.1l1.5 .7l.1 1.1M104.7 339.5l5.2-2.4M113.3 338.1l1.9 1.3M111.5 338.9l1.8-.8M200.7 207.1l-4.6-.6l-.4-5.4l-2.7-2.8M193 198.3l-2.8 1.1M190.2 199.4l-2-.1M188.2 199.3l-2.1 1.1l-1 2.6l-3 .6M209.4 210.3l1.4-.7l2.2-3.8l-.8-2.8l1-1.5l-2-1.5M211.2 200l-3.5 2.3l-1.5 3.4l-5.5 1.4M160.3 208.7l-5-3l-.8-3.2l-3.3-1.1M151.2 201.4l-.9 2.6l.8 1.3l-1.1 2.1M180.3 203.4l-.9-.4M179.4 203l1.3 3.4l4.4 2.9l.9 9.6l1.4 1.2l-4.2 4.9M182.1 203.6l-.8-.2M181.3 203.4l-1 0M150 207.4M150 207.4l-.7 .8M165.1 220.6l-1.9-1.9l1.8-4.2l-.6-1.9l1.7-.6l-3.2-4.3M162.9 207.7l-2.6 1M149.3 208.2l-1-.2M148.3 208l-9.4 6.6l-7.3 .6l-2.8 1.6M208.5 210.1l.9 .2M209.4 219.7l.1-2l1.2-1l-3.7-1.8l1.5-4.8M128.8 216.8l-1.1 0M208.5 219.6l.9 .1M207.7 223.6l-.4-3.6l1.2-.4M166.2 229.7l-2.5-1.1l-.9-2.2l1.3-1.4l2.7-.8l1.1-3.3l-1.6-.5M166.3 220.4l-1.2 .2M216.6 234.1l-1.9-1l1.1-2l-.9-2.6l.5-1.8l-1.9-1.5l.1-1.3l-3.2-.6M210.4 223.3l-.9 .1M209.5 223.4l-.5-.1M209 223.3l-1.3 .3M183.2 225l-5.2-1.4M178 223.6l-2.7 2.8l-3.6 1.5M171.7 227.9l-1.5-.5M170.2 227.4l-4 2.3M218.4 237.3l1-3.2l-1.8-.9M217.6 233.2l-1 .9M221.2 241.6l.1-3.5l-1.8-1M219.5 237.1l-1.1 .2M223.7 255.5l-.8-.7l.7-5.1l2.2-3.6l.4-5.4M226.2 240.7l-1.8 .5M224.4 241.2l-1.8-.1M222.6 241.1l-1.4 .5M225.6 254.9l-1.9 .6M395.3 200.7l.9-3.4l-3.2-1.5l-2.7-3.1l0-2.1l-1.2-1.3M389.1 189.3l-1.7 1.4M384.7 191.9l-2.2-.4l-.8-1.8M381.7 189.7l-1.2 1.6l-1.6 .4l-.5 2.5M387.4 190.7l-.8-.5M386.6 190.2l-1.9 1.7M378.4 194.2l-2.1-.8M376.3 193.4l-.6 4.9l.6 1.5l-1.7 1.8l.1 2.1l-1 1.6l2.6 1.2M396.1 210.1l2.4-2l1.9-4.8l-3.5-2.8M396.9 200.5l-1.6 .2M378.8 205.2l1.4 .8M376.3 206.5l2.5-1.3M388.5 205.2l1.5 1.3M387.2 207.5l0-1.6l1.3-.7M381.9 205.3l.7 1M380.2 206l1.7-.7M384 205.8l1.2 1.4l2 .3M382.6 206.3l1.4-.5M391.3 206l3.6 1.4M390 206.5l1.3-.5M395.3 207.3l.8 2.8M394.9 207.4l.4-.1M190.1 153.8l-1.9-.9M188.2 152.9l-.9 .1l.7 1.6l3.1 1.4M195.2 155.3l-4.3-1.7M190.9 153.6l-.8 .2M199 156.6l-2.1-1.5M196.9 155.1l-1.7 .2M192 155.9l4.4 8.5M191.1 156l.9-.1M203.9 158.6l-3.8-2M200.1 156.6l-1.1 0M204.3 165.9l2.4-1.8l.6-2.6l-1.3-1.9l.8-.9l-1.8-1.7M205 157l-1.1 1.6M198.5 164l2.9 1.4M196.4 164.4l2.1-.4M202.3 164.5l2 1.4M201.4 165.4l.9-.9M190.9 128.5l-2.9-.9M191.5 135.9l1.7-2.3l-.6-5.2M192.6 128.4l-1.7 .1M189.8 133.9l.9 1.3M191 135.2l.5 .7M190.7 135.2l.3 0M300 160l2.1 2.8l1.6 .6M306.6 162.1l5.8 2.7M303.7 163.4l2.9-1.3M407.3 139.9l-2.1-5.2l-3.6-2.3M401.6 132.4l1.1 3.8l-1.2 .5M401.5 136.7l-1.4-.1M400.1 136.6l-1.4 .2l-4.1 4.1l-2.8 1l-1.9 5l-4.2 3.1M417.7 139.8l-1.5-.7M416.2 139.1l-1.8 1.3M420.6 150.8l-5.9-.9l0-1.3l3.4-2.2l1.5-2.2l.7-4.3l-.9-.2M419.4 139.7l-1.7 .1M414.4 140.4l-4.3-.7M410.1 139.7l-2.8 .2M347.5 150.3l-6.1-4.2l-2.8-.7l-1.4-1.7M337.2 143.7l-1.8 .9M335.4 144.6l-1-.8M334.4 143.8l-2.2 .7M332.2 144.5l-.2 0M332 144.5l-2.1 3.7l-2.2 1.4M426.3 145.9l-5.7 4.9M385.7 150l-3.3-1.2M382.4 148.8l-1.7 .4l-1.4 3.3l-1.2 0M327.7 149.6l-.7-.3M327 149.3l-3.2 2M360.4 155.1l-1.4-2.3l-8.8-2.9M350.2 149.9l-2.7 .4M378.1 152.5l-1.9-1.7M376.2 150.8l-7.3 6.1M323.8 151.3l-1.2-.3M322.6 151l-.7 .4l1 1.5M319 153.6l-2.2-2.3M316.8 151.3l-3.6 .9l-2.6 2.1l.8 3.8l-.3 1l-1.9 .7M322.9 152.9l-1.3-.1M321.6 152.8l-2.6 .8M364.5 155.5l-2.3-.8M362.2 154.7l-1.8 .4M368.9 156.9l-1.2-.6l.2-1.4M367.9 154.9l-3.4 .6M309.2 159.8l-2.2-1.2M307 158.6l-2 .3l-.2 1.6M301.8 160l-.9-.2M300.9 159.8l-.9 .1M304.8 160.5l-1.7-.5M303.1 160l-1.3 0"/>
<path fill="none" stroke="#7fa577" stroke-width="1.2" stroke-linejoin="round" d="M403 441.3l-1.3 3.2l1.3 1.3l-.7 6.4l-.9 1.8l-1.8 .7l-.6 2.4l-3.7-2.8l-4.3-1.2l-2.6 .6l-.7 9.3l-1.4 3.5l-5.2 4.5l-9.8 2.8l-4.1 3.5l-2.9 .9l-5 5.3l.5 2.5l3.3 3.8l1.2 3.4l2.8 2.5l2.5 5.1l-4 7.9l2.9 1.2l2.2-.5l2.2 3.5l-1.9 7.5l.5 3.2l-1.5 1.7l-2.8-.4l-6.3-5.2l.3-3.2l1.2-.6l-2.5-2.4l.3-1.2l-4.4-.5l-3.9 2.6l-2.3 .5l-2.2-1.8l-.8-2.3l-7.5 .8l0-3.4l-2.5 1.6l1.1 4.5l-1.3 2.1l-9.6-.3l-3.4 .6l-1.3 1.6l-8.2-.9l-2.7 4.9l-5.6 .5l-1.9 2.3l.8 1.7l-3.2 .5l-2.8 2.7l-1-.1l.1-1.7l-.9-.5l-4.5 2.7l-4.2-.2l-.8-2.7l-4.3-3.9l1.6-1.4l-.9-.8l-4.4 .9l-6.3-3.2l-2.9 2.1l-2.2-.1l-1.1-.9l.1-2.2l-1.2 .2l-.3 5.4l1.4 2.2l-1.1 4.1l-2.3 1.9l-2.6 4.1l-2.7 1.7l-3.2 .4l1.3-2.2l.6-4.4l-5.1 .9l-1.1-3l1.1-1.5l-2.3-3.9l-1.8 .5l-1.4-3.9l-4.5 .5l-.9-.6l-.2-2.2l-1.6-.7l-2.6 3.7l-3.7 .5l-2.4-.6l-11.4-7.7l-3.1-.3l-.6-1l-6.7-.5l-2.9 1.6l-2.5-.1l-3.5-4.1l-1-.2l0 1.8l-2.2 0l-.7-1.9l.6-2.1l-1.4-.2l-1.4-2l-1.2 2.2l-1.3-2.9l-1.8 .3l-.1 1.5l-3.1 .6l-2.9 4.6l0 1.8l2.8 1.6l2.5-1.1l3.5 .1l-1.9 4.3l-1.5-2.1l-1.3 .1l-2.8 2.5l-4.2-.4l-1.2-1.8l-2.3-.4l-2.2 .4l-3.2 2.9l-2.3 .6l-5.3 0l-.6-1.7l-3-.5l-2.2 2.5l-3.4 .8l-3.1-1.3l1.7-.4l.4-1.7l-2.9 .8l.1-1.5l-2.8-4.1l-.4-2.4l1-1.5l-.4-3.4l1.6-4.3l-.3-2.1l2.5-5.7l0-2.1l-1.8-3.3l.2-3.9l1.3-4.1l3.1-4.8l.5-3.8l1.9-1.9l-.4-4.3l1.3-5.3l1.8-2l-.2-6.1l6-6.9l.4-2.3l1.9-.3l.9-1.9l2.2-1.1l4.4-9.8l-4.4-1.3l-6.4-3.6l-3.1 .2l-3.3-1.1l-1.9 .9l-3.8-.2l-1.1-1.5l-4-2.1l-1.5-2.2l.1-1.5l-2.6-1.1l-2.5 .6l-3 3.5l-4.8-.6l-2.8-1.8l-1.8 2.2l-1.4-2.5l.1-2.3l-3.9-1.6l-3.2-.1l-.6 3.9l-4.4-.7l-.4-3.6l-.9 .5l-1.6-4.2l-3.4-3.5l-.1-1.4l1-.5l-2.8-4.5l-4.4-2.6l-2.3 .6l.4-7.8l2.5-4.1l0-2l3.1-1.9l.4-6.2l-4.3-.8l-2.5-2.1l-1.3 .3l-.6-1.6l-2.7-1.7l-2-4.4l-.4 .9l-2.7-6.9l1.1-7.5l1.7-1.1l-.7-2.1l1.7-1.9l2.7-.8l1.3-3.1l3-.2l.5-1.4l-1.5-2.5l0-7.4l-3.2-.8l-2 .5l-1.6-2.4l-.3-1.3l3.5-4.6l-3.7-.5l.2-1.3l-3.2-4.6l-3 .3l-1.7-5.6l1.3-.4l.4-2.5l1.9-.8l.3-3.6l-2.6-1.4l.1-2.8l-5.2 .5l-.9-5l1.2-.6l2.3 1.3l1.8-2.8l6.7-5l-.9-.8l1.3-1l-1-.3l-1.9 1.4l-1-.5l-.2-2.6l3.7-6.9l1.9-1.8l.6-2.7l-.6-7.9l-4.4-5.5l.6-3.2l-2.8-1.2l-.9-1.2l.2-2.3l-3.1-1l1-2.8l-1.4-2l6.3-3l3 .7l-2.6-2.8l1.3-.8l4.1 2.3l1.6-.3l.9 1.3l2.2 .7l.1 .9l1.5-.4l-.2-2.1l3.5 .8l2.7-1.9l8.7-2l2.8-4.2l-1.5-1.8l-4.1-2.1l.2-1.8l1.3-.4l1.5-2.3l3.3-.6l2.2-3.1l5.8-4.8l-.7-3.3l1.5-5.1l-2.9-5.6l-3.1 1.2l-6.4-1.3l-1.9-1.4l-.9-4.4l2.9-1.1l-1.6-1.5l-.1-2.3l1.4-1.1l5.3-.4l6.1 1l1.8-12.8l4.9-9.2l.5-4.3l-.9-7.3l.9-6.4l2.9-5.1l4.1 1.4l-2.7-2l-9.2-.3l-1.4-.7l-.7-1.8l0-4.8l1.1-4.1l2.8-.2l.9-1.3l-2.2-3.3l5.7-5.1l3.2-1.2l6.1-.7l1.9 1.1l18.1-2.8l3.2 1l.9 4.6l3.1 2.9l-.3 1.2l1.9 1.2l-.5 1.8l-3.9 1.6l.7 2.1l.9 1.4l1.7-.4l2.7 2.8l2.2-.1l2.2-4l.2-2.3l-1.1-1.4l-2.5 .4l1.6-5.7l2.3-.3l2.4 2.6l6.7 2.2l-2.5 3.7l-.3 5.4l.9 2.9l-.3-7.5l2.8-4.7l-3.4-8.9l4.2-12.1l3.6-1.3l4.3 3.2l3.2 .7l14.2-2.6l2.9 .6l12.1 17.5l4.7 2.2l5.6 .9l-2.1-1.7l-5.1-.9l-4.4-3.3l-.7-4.9l-3.8-2.4l-1.8-5.4l-7-3.9l-7.7-1l-1.9 .7l-2.8-2.7l-3.3-6.4l2.3-.8l4.4 1.2l.9-4.3l-1.9-2l.1-1.2l-2.3 0l-2.4 1.4l-2-3.6l1.5-3.5l-.3-1.4l3.3-1.2l1.6-2.7l-3.3 1.7l.3-.9l-6 .7l-2.5 1.5l-2.2-1.3l-1-3l3.9-1.5l-1.9-1.2l-.6 .8l.6-2.6l9.7-.8l4.8-3l.3-2.7l-5.1-6.2l-2.5 .3l1.1-1.4l-1.4-3.5l-5.3-4l.3-1.5l-2.2-5.5l.8-3.4l2.9 .5l3.8-1.1l15 3.6l1.9 3.1l3.7-.1l2-1.1l2.8 .7l5.2-3.6l0 2.3l6.3 1.5l2.6 1.5l.9 1.8l2.9-.9l-.1-1.3l2.3 .7l2.8 5l-1.9 0l-1.6 1.8l4.2 0l-.3 7.3l-2.4 3.5l-5.2 2l1.8 .9l10.5-2l2.5 2.1l-.9 .8l.3 3.3l-1.9 1.6l0 3.1l1.5-1.1l2.2-5l3.5-1.6l11.3 5l5.3 3.6l1.9-.3l6.4-4.2l3.4-.4l-1.8 .5l2.4 .7l2.9-1.6l1.3 .4l-2.1 2.2l-.7-.5l1 5l-.1 4.9l-.9 1.5l-7.1 5.2l-3.2 .4l-2.5 3l1.1 2.6l3.8 .9l1.2 2.3l6.1-3l5-.7l1.2 1.9l1.4 .4l.6 2.7l1.6 0l1.6-1.3l5 3.5l2.5-8.4l2.2-.1l3.5-6.7l1.3-.8l4.9 .3l11.1-2.9l.2 5.2l1 1.1l-.9-3.2l1.9-2.2l-1.6 .4l.3-.6l3.2-3.8l6.3-4l6.4-11l1.3-.9l.6 1.7l1.8 .6l11.6 .3l1.8 .9l-2.1 1.1l-7.1-1.1l-1 .9l-1.9-.2l-.6 1.1l-1.2 0l.6 1.3l-1.6-.3l-1.2 1.2l-1.4-1.1l-2.1 .1l-.6 2.7l-1.1-.4l-.2 2.1l-1.1 .6l.1 2.6l1.8 1.2l1.9-.3l-1.2-.1l-.4-1.5l3-3.9l2.8-1.2l-.9-.8l3.4-.1l3.3-2.7l-.8 2.8l.8-1.8l1.2 1.4l2-.8l1.4 2.1l1.4 0l3.1-3.7l4.2-1.2l-.1 2.1l2.6 1.9l-.7 1.3l1.4 4.7l2.4 .2l-1.2 .9l6 1.8l2.3 3.5l-1 .9l3.3-.5l-.8 1.4l1.4 0l2.7 4l.8-.4l-1-1.8l5-1l4.4-2.2l-.5 1.4l4.4 3.1l-2.5 4.4l3.8 3.3l.3 1.9l2.5 1.5l-3.7 3.6l0 1.6l8.9 6.3l6 1l1.9-1.4l1.3 .6l.2 1l-2.4 1.9l2.2 .4l1.6 12.5l2.2 4.1l1.8 10.7l1.6 1.8l-2.5 4l.4 3.7l-1.9 5.4l-8.1 5.8l.8 4.1l-1.6 2.8l10.5 7.4l1.9 3.3l2.4 2.3l2.5 .9l3.8 3.9l-1.4 3.9l.9 1.3l-1.6 3l-2.2 1.8l.3 2.6l1.6 5.9l5.1 3.5l-1 7.4l3.1 3l-2.4 4.8l-.7 5.7l-3.6 4.5l-.5 2.5l2.1 2.3l.4 3.4l3.5 3.8l.4 3.3l-1.3 2.5l0 2.4l8.8 4.5l1.2 1.7l.1 6.5l2.5 4l-2.6 13.5l-4 9.6l-2 2.5l-.6 2.9l-1.5 1.4l-5.8-2.2l.6-5l-3.2 .6l1-4.1l-2.9-2.1l-.9-1.9l-.7 1.2l-2.7 .4l-1.7-1.3l-2.8-.2l-1.9 3.5l2.6 .8l-.4 1.1l3.5 2l-.1 1.7l-1.2 1l-4.7 .1l-1.7 1.9l-6.3 3l-2.2-.1l-2.3 1.6l-1.3-.1l-.3 2.5l-2.1 1.2l-11.2 1.1l-1.6 1l.3 1.8l-3.1 4.3l-1.6-.2l-1.6-1.9l-3.4 4l-2.2-.9l-2.9 5.4l-6.1 .4l-.4 3.8l-1.9 1.9l-5.4-2.6l-3.3 .8l-1.9 2.4l-7.3 .3l-7.1 8.4l-1.5 6.4l-2.9-4.9l.6-1l-2.6-1.1l-.3-2.2l-3.8-.8l1.4 2.5l-1.3 2.2l4.3 4.6l.1 4.5l2.2 2.1l.1 1.6l8.4 4.2l.8 1.6l-.4 1.5l2.3 1.3l-1.4 5.5l-.9-.2l-.3 3.3l-2.9 2.4l1.5 2.7l3.2 1.9l.1 3.3l1.9 1.6l1.5 4.6l1.6 .9l.8 5.2l2.7 1.6l2.7 4.7l3.3 .6l1.1-1.1l4.7 2.9l7.2 11.5l4.9 1.5l2.9 3.6l1.1 3.9l2.4 2.1l1.1 .5l1.3-2.1l3.8 1.6l.4 2.4l1.3 1.7l2.9 .9l3.7 6.6zM419 106.8l-1.4 2.1l1 1.9l-6.1-.2l-4.5 2.3l-4-.4l-.7-.9l4.4-2.3l-1.1-6.2l2.8 .5l-.6 3.1l1.2-1.3l1.6 0l-.6 .9l1.5 .4l.1-4.1l-4.4-4.1l-1.1 .7l.3 1.3l-1.3 1.7l-1.5 .5l.9-2.2l-.6-.9l-2.8 2.1l-.7-.3l1.6-5.1l-2.5-3.3l.3-.8l2.2-.6l1.6 3.7l6.6 3.7l7.8 7.8zM118.5 128.4l-3.1 .9l1.4 1.9l-1.2-1l-2.1 .1l-.7-1.5l5.1-1.3l.6 .9zM121.6 124.1l7-1.4l1.6 .4l-8.6 1zM132.1 121.8l1.9-1.1l6.7-.2l-2.1 1.1l-6.5 .2zM172.1 120.9l1.3-1.2l1.7 .8l-1.7 .8l-1.3-.4zM147.7 118.3l3.5-.1l.9 .9l-4.6 .2l-.1 1.2l-1.2 0l-.3-1.9l1.8-.3zM153.5 118.3l1.1-1.3l5.1-.1l-2.7 1.4l-3.5 0zM304 104.1l2.2-2.7l2.8 0l-1.6 4l-.5-2.4l-.8 2l-2.1-.9zM310.3 98l3.5-2.4l-3.1 3.6l-.4-1.2zM206.2 69l-2 3.1l-2.8 .6l-1.3-1l0-1.3l2.8-1.8l3.3 .4zM299.2 71.9l2.3 4.2l-5.1-.8l-.3 .7l-2.7 0l-.6-2.4l-3.7-.2l1.1-3.5l3.6-1.7l3.4 1.4l2 2.3zM375.7 64.2l-3.2 8.3l1.6-8.1l2-.7l-.1 1.9l-.3-1.4zM398.3 77.6l2.6 2.9l-1.4 1.9l-.3 2.5l-1.3-.3l.9-.3l0-1.1l-2.5 .5l2.5-2.3l-3.8 1l2.9-2.3l-2.5 .8l-1.2-.8l-4.8 .8l-3.1 3.5l-1.8 .7l-.2 1.6l.3-.8l2.3-.3l-.4 2.6l-3.9-1.6l1-2l-.9 1.3l-1.9 .4l-2.3-1.3l-.3-1.3l-2.2 .4l0-1l1.2-.3l-2.5-1.7l1.3-2.7l3 .4l1.8-.9l-1.2-.4l0-1.8l-1.1-.8l-2.2 .4l1-1.8l3.6-1.8l-1.6-.7l0-1.5l-1.9 .5l-1.7-2.3l4.1-.8l1.9 1.1l.3 1.3l.1-2l2.8-2.3l-.9 4l1.5-.5l.3-.8l-1.2-.4l.6-1l2.2 4.7l3 .3l.6-1.8l-.9-2.2l.9-1.3l-3.2 .9l-2.9-3.6l-3.1 2.8l-1.6 .2l1.6-5l-2.8 .5l.3-1.2l7.6-2.3l1.1 1l-2.5 2.4l1 2.8l2.3 1.1l7-.6l1.6 3l-3.8 3.5l-.2 1.9l1.3 2.7l3.6 1.5zM180.7 58l2.8 4l-.6 .4l-1.3 .4l-2.5-3l1.6-1.8zM187.4 54l2.2 .1l1.7 1.6l-1.1 2.8l-4.7-.5l-2.3-1.4l1.7-2.2l2.5-.4zM181.9 41.5l-.3 2.3l1.4 1.2l10.7 .1l-6 .5l-2.3 1.3l-4.6-.8l-1.4 1.4l-.6 7.4l.4-11.1l3.2-7.8l1.6-2l1.9 1l-2.7 .4l1.4 .9l-2.7 2.7l0 2.5zM192.9 67.7l2.7-.9l-.3 2.2l-.9 1.5l-2 .5l-1.1-1.3l1.6-2z"/>
</svg>
